<svg xmlns="http://www.w3.org/2000/svg" width="553px" height="788px" viewBox="0 0 553 788" xmlns:xlink="http://www.w3.org/1999/xlink" style="overflow: hidden; display: block; width: 553px; height: 788px;"><defs><path fill="rgb(194,54,22)" stroke="none" d="M 0,0 L 10,-5 L 5,0 L 10,5 Z" fill-opacity="1" id="ygc12_0"/><path fill="rgb(0,151,230)" stroke="none" d="M 0,0 L 10,-5 L 5,0 L 10,5 Z" fill-opacity="1" id="ygc12_1"/></defs><g style="pointer-events:visiblePainted" transform="translate(90 100)" image-rendering="auto" shape-rendering="auto"><g><path fill="none" stroke="rgb(194,54,22)" d="M 300,270 L 300,524.1621810142715" stroke-opacity="1" stroke-width="1" stroke-linecap="square" stroke-linejoin="miter" stroke-miterlimit="10"/><use transform="matrix(0 -1 1 0 300 529.1621810142715)" xlink:href="#ygc12_0" style="pointer-events: none;"/></g><g><path fill="none" stroke="rgb(0,151,230)" d="M 205,480 L 205,487.5 Q 205,490 207.38944752180487,490.7352146220938 L 267.61055247819513,509.2647853779062 Q 270,510 270,512.5 L 270,524.1621810142716" stroke-opacity="1" stroke-width="1" stroke-linecap="square" stroke-linejoin="miter" stroke-miterlimit="10"/><use transform="matrix(0 -1 1 0 270 529.1621810142716)" xlink:href="#ygc12_1" style="pointer-events: none;"/></g><g><path fill="none" stroke="rgb(194,54,22)" d="M 330,165 L 330,172.5 Q 330,175 328.5,177 L 316.5,193 Q 315,195 315,197.5 L 315,209.1621810142716" stroke-opacity="1" stroke-width="1" stroke-linecap="square" stroke-linejoin="miter" stroke-miterlimit="10"/><use transform="matrix(0 -1 1 0 315 214.1621810142716)" xlink:href="#ygc12_0" style="pointer-events: none;"/></g><g><path fill="none" stroke="rgb(0,151,230)" d="M 280,160.8378189857284 L 280,172.5 Q 280,175 280.60633906259085,177.42535625036334 L 284.39366093740915,192.57464374963666 Q 285,195 285,197.5 L 285,209.1621810142716" stroke-opacity="1" stroke-width="1" stroke-linecap="square" stroke-linejoin="miter" stroke-miterlimit="10"/><use transform="matrix(0 -1 1 0 285 214.1621810142716)" xlink:href="#ygc12_1" style="pointer-events: none;"/></g><g><path fill="none" stroke="rgb(194,54,22)" d="M 220,375 L 220,419.16218101427165" stroke-opacity="1" stroke-width="1" stroke-linecap="square" stroke-linejoin="miter" stroke-miterlimit="10"/><use transform="matrix(0 -1 1 0 220 424.16218101427165)" xlink:href="#ygc12_0" style="pointer-events: none;"/></g><g><path fill="none" stroke="rgb(0,151,230)" d="M 90,375 L 90,382.5 Q 90,385 92.4514516892273,385.49029033784547 L 187.5485483107727,404.50970966215453 Q 190,405 190,407.5 L 190,419.16218101427165" stroke-opacity="1" stroke-width="1" stroke-linecap="square" stroke-linejoin="miter" stroke-miterlimit="10"/><use transform="matrix(0 -1 1 0 190 424.16218101427165)" xlink:href="#ygc12_1" style="pointer-events: none;"/></g><g><path fill="none" stroke="rgb(194,54,22)" d="M 170,270 L 170,277.5 Q 170,280 172.17060785531115,281.2403473458921 L 202.82939214468885,298.7596526541079 Q 205,300 205,302.5 L 205,314.16218101427165" stroke-opacity="1" stroke-width="1" stroke-linecap="square" stroke-linejoin="miter" stroke-miterlimit="10"/><use transform="matrix(0 -1 1 0 205 319.16218101427165)" xlink:href="#ygc12_0" style="pointer-events: none;"/></g><g><path fill="none" stroke="rgb(0,151,230)" d="M 235,270 L 235,314.16218101427165" stroke-opacity="1" stroke-width="1" stroke-linecap="square" stroke-linejoin="miter" stroke-miterlimit="10"/><use transform="matrix(0 -1 1 0 235 319.16218101427165)" xlink:href="#ygc12_1" style="pointer-events: none;"/></g><g><path fill="none" stroke="rgb(194,54,22)" d="M 200,165 L 200,172.5 Q 200,175 201.76776695296635,176.76776695296635 L 218.23223304703365,193.23223304703365 Q 220,195 220,197.5 L 220,209.16218101427162" stroke-opacity="1" stroke-width="1" stroke-linecap="square" stroke-linejoin="miter" stroke-miterlimit="10"/><use transform="matrix(0 -1 1 0 220 214.16218101427162)" xlink:href="#ygc12_0" style="pointer-events: none;"/></g><g><path fill="none" stroke="rgb(0,151,230)" d="M 250,160.8378189857284 L 250,209.1621810142716" stroke-opacity="1" stroke-width="1" stroke-linecap="square" stroke-linejoin="miter" stroke-miterlimit="10"/><use transform="matrix(0 -1 1 0 250 214.1621810142716)" xlink:href="#ygc12_1" style="pointer-events: none;"/></g><g><path fill="none" stroke="rgb(194,54,22)" d="M 167.5,60 L 167.5,67.5 Q 167.5,70 169.1462615196713,71.8814417367672 L 183.3537384803287,88.1185582632328 Q 185,90 185,92.5 L 185,104.1621810142716" stroke-opacity="1" stroke-width="1" stroke-linecap="square" stroke-linejoin="miter" stroke-miterlimit="10"/><use transform="matrix(0 -1 1 0 185 109.1621810142716)" xlink:href="#ygc12_0" style="pointer-events: none;"/></g><g><path fill="none" stroke="rgb(0,151,230)" d="M 232.5,60 L 232.5,67.5 Q 232.5,70 230.8537384803287,71.8814417367672 L 216.6462615196713,88.1185582632328 Q 215,90 215,92.5 L 215,104.1621810142716" stroke-opacity="1" stroke-width="1" stroke-linecap="square" stroke-linejoin="miter" stroke-miterlimit="10"/><use transform="matrix(0 -1 1 0 215 109.1621810142716)" xlink:href="#ygc12_1" style="pointer-events: none;"/></g><g><path fill="none" stroke="rgb(194,54,22)" d="M 40,270 L 40,277.5 Q 40,280 42.17060785531115,281.2403473458921 L 72.82939214468885,298.7596526541079 Q 75,300 75,302.5 L 75,314.16218101427165" stroke-opacity="1" stroke-width="1" stroke-linecap="square" stroke-linejoin="miter" stroke-miterlimit="10"/><use transform="matrix(0 -1 1 0 75 319.16218101427165)" xlink:href="#ygc12_0" style="pointer-events: none;"/></g><g><path fill="none" stroke="rgb(0,151,230)" d="M 105,270 L 105,314.16218101427165" stroke-opacity="1" stroke-width="1" stroke-linecap="square" stroke-linejoin="miter" stroke-miterlimit="10"/><use transform="matrix(0 -1 1 0 105 319.16218101427165)" xlink:href="#ygc12_1" style="pointer-events: none;"/></g><g transform="translate(255 525)"><defs/><ellipse cx="30" cy="30" rx="30" ry="30" fill="#333333"/><g><text x="30" y="24.2421875" alignment-baseline="central" text-anchor="middle" clip-path="url(#node-node-0)" fill="#ffffff" font-size="10px" font-family="sans-serif" font-style="normal" font-weight="normal" text-decoration="none"><tspan dy="0.9203125em" x="30">Essex</tspan></text><clipPath id="node-node-0"><ellipse cx="30" cy="30" rx="30" ry="30"/></clipPath></g></g><g transform="translate(270 210)"><defs/><ellipse cx="30" cy="30" rx="30" ry="30" fill="#333333"/><g><text x="30" y="24.2421875" alignment-baseline="central" text-anchor="middle" clip-path="url(#node-node-1)" fill="#ffffff" font-size="10px" font-family="sans-serif" font-style="normal" font-weight="normal" text-decoration="none"><tspan dy="0.9203125em" x="30">Lee</tspan></text><clipPath id="node-node-1"><ellipse cx="30" cy="30" rx="30" ry="30"/></clipPath></g></g><g transform="translate(175 420)"><defs/><ellipse cx="30" cy="30" rx="30" ry="30" fill="#333333"/><g><text x="30" y="24.2421875" alignment-baseline="central" text-anchor="middle" clip-path="url(#node-node-2)" fill="#ffffff" font-size="10px" font-family="sans-serif" font-style="normal" font-weight="normal" text-decoration="none"><tspan dy="0.9203125em" x="30">S5-7075</tspan></text><clipPath id="node-node-2"><ellipse cx="30" cy="30" rx="30" ry="30"/></clipPath></g></g><g transform="translate(300 105)"><defs/><ellipse cx="30" cy="30" rx="30" ry="30" fill="#333333"/><g><text x="30" y="24.2421875" alignment-baseline="central" text-anchor="middle" clip-path="url(#node-node-3)" fill="#ffffff" font-size="10px" font-family="sans-serif" font-style="normal" font-weight="normal" text-decoration="none"><tspan dy="0.9203125em" x="30">S-100</tspan></text><clipPath id="node-node-3"><ellipse cx="30" cy="30" rx="30" ry="30"/></clipPath></g></g><g transform="translate(235 105)"><defs/><ellipse cx="30" cy="30" rx="30" ry="30" fill="#333333"/><g><text x="30" y="24.2421875" alignment-baseline="central" text-anchor="middle" clip-path="url(#node-node-4)" fill="#ffffff" font-size="10px" font-family="sans-serif" font-style="normal" font-weight="normal" text-decoration="none"><tspan dy="0.9203125em" x="30">C.N.S.</tspan></text><clipPath id="node-node-4"><ellipse cx="30" cy="30" rx="30" ry="30"/></clipPath></g></g><g transform="translate(190 315)"><defs/><ellipse cx="30" cy="30" rx="30" ry="30" fill="#333333"/><g><text x="30" y="24.2421875" alignment-baseline="central" text-anchor="middle" clip-path="url(#node-node-5)" fill="#ffffff" font-size="10px" font-family="sans-serif" font-style="normal" font-weight="normal" text-decoration="none"><tspan dy="0.9203125em" x="30">N48-1248</tspan></text><clipPath id="node-node-5"><ellipse cx="30" cy="30" rx="30" ry="30"/></clipPath></g></g><g transform="translate(60 315)"><defs/><ellipse cx="30" cy="30" rx="30" ry="30" fill="#333333"/><g><text x="30" y="24.2421875" alignment-baseline="central" text-anchor="middle" clip-path="url(#node-node-6)" fill="#ffffff" font-size="10px" font-family="sans-serif" font-style="normal" font-weight="normal" text-decoration="none"><tspan dy="0.9203125em" x="30">Perry</tspan></text><clipPath id="node-node-6"><ellipse cx="30" cy="30" rx="30" ry="30"/></clipPath></g></g><g transform="translate(140 210)"><defs/><ellipse cx="30" cy="30" rx="30" ry="30" fill="#333333"/><g><text x="30" y="24.2421875" alignment-baseline="central" text-anchor="middle" clip-path="url(#node-node-7)" fill="#ffffff" font-size="10px" font-family="sans-serif" font-style="normal" font-weight="normal" text-decoration="none"><tspan dy="0.9203125em" x="30">Roanoke</tspan></text><clipPath id="node-node-7"><ellipse cx="30" cy="30" rx="30" ry="30"/></clipPath></g></g><g transform="translate(205 210)"><defs/><ellipse cx="30" cy="30" rx="30" ry="30" fill="#333333"/><g><text x="30" y="24.2421875" alignment-baseline="central" text-anchor="middle" clip-path="url(#node-node-8)" fill="#ffffff" font-size="10px" font-family="sans-serif" font-style="normal" font-weight="normal" text-decoration="none"><tspan dy="0.9203125em" x="30">N45-745</tspan></text><clipPath id="node-node-8"><ellipse cx="30" cy="30" rx="30" ry="30"/></clipPath></g></g><g transform="translate(170 105)"><defs/><ellipse cx="30" cy="30" rx="30" ry="30" fill="#333333"/><g><text x="30" y="24.2421875" alignment-baseline="central" text-anchor="middle" clip-path="url(#node-node-9)" fill="#ffffff" font-size="10px" font-family="sans-serif" font-style="normal" font-weight="normal" text-decoration="none"><tspan dy="0.9203125em" x="30">Ogden</tspan></text><clipPath id="node-node-9"><ellipse cx="30" cy="30" rx="30" ry="30"/></clipPath></g></g><g transform="translate(137.5 0)"><defs/><ellipse cx="30" cy="30" rx="30" ry="30" fill="#333333"/><g><text x="30" y="24.2421875" alignment-baseline="central" text-anchor="middle" clip-path="url(#node-node-10)" fill="#ffffff" font-size="10px" font-family="sans-serif" font-style="normal" font-weight="normal" text-decoration="none"><tspan dy="0.9203125em" x="30">Tokyo</tspan></text><clipPath id="node-node-10"><ellipse cx="30" cy="30" rx="30" ry="30"/></clipPath></g></g><g transform="translate(202.5 0)"><defs/><ellipse cx="30" cy="30" rx="30" ry="30" fill="#333333"/><g><text x="30" y="24.2421875" alignment-baseline="central" text-anchor="middle" clip-path="url(#node-node-11)" fill="#ffffff" font-size="10px" font-family="sans-serif" font-style="normal" font-weight="normal" text-decoration="none"><tspan dy="0.9203125em" x="30">PI 54610</tspan></text><clipPath id="node-node-11"><ellipse cx="30" cy="30" rx="30" ry="30"/></clipPath></g></g><g transform="translate(10 210)"><defs/><ellipse cx="30" cy="30" rx="30" ry="30" fill="#333333"/><g><text x="30" y="24.2421875" alignment-baseline="central" text-anchor="middle" clip-path="url(#node-node-12)" fill="#ffffff" font-size="10px" font-family="sans-serif" font-style="normal" font-weight="normal" text-decoration="none"><tspan dy="0.9203125em" x="30">Patoka</tspan></text><clipPath id="node-node-12"><ellipse cx="30" cy="30" rx="30" ry="30"/></clipPath></g></g><g transform="translate(75 210)"><defs/><ellipse cx="30" cy="30" rx="30" ry="30" fill="#333333"/><g><text x="30" y="24.2421875" alignment-baseline="central" text-anchor="middle" clip-path="url(#node-node-13)" fill="#ffffff" font-size="10px" font-family="sans-serif" font-style="normal" font-weight="normal" text-decoration="none"><tspan dy="0.9203125em" x="30">L37-1355</tspan></text><clipPath id="node-node-13"><ellipse cx="30" cy="30" rx="30" ry="30"/></clipPath></g></g></g><style>*, ::after, ::before { box-sizing: border-box; }</style></svg>